<?xml version="1.0" encoding="UTF-8" standalone="no"?>
<svg width="290px" height="49px" viewBox="0 0 290 49" version="1.1" xmlns="http://www.w3.org/2000/svg" xmlns:xlink="http://www.w3.org/1999/xlink">
    <!-- Generator: Sketch 44.1 (41455) - http://www.bohemiancoding.com/sketch -->
    <title>sw-logo-black</title>
    <desc>Created with Sketch.</desc>
    <defs></defs>
    <g id="Page-1" stroke="none" stroke-width="1" fill="none" fill-rule="evenodd">
        <g id="sw-logo-black" fill-rule="nonzero">
            <g id="Group" transform="translate(33.453332, 17.679999)" fill="#2B3943">
                <g transform="translate(62.573331, 21.493333)">
                    <g transform="translate(49.573332, 0.000000)" id="Shape">
                        <path d="M1.9066666,1.8026666 L1.14399996,1.8026666 L1.14399996,4.43733317 L0.693333308,4.43733317 L0.693333308,1.8026666 L0.155999994,1.8026666 L0.155999994,1.59466661 L0.693333308,1.43866661 L0.693333308,1.26533329 C0.693333308,0.537333314 1.02266663,0.155999994 1.66399994,0.155999994 C1.81999993,0.155999994 2.01066659,0.19066666 2.21866659,0.25999999 L2.09733326,0.623999977 C1.92399993,0.571999979 1.76799994,0.537333314 1.64666661,0.537333314 C1.47333328,0.537333314 1.35199995,0.589333312 1.26533329,0.710666641 C1.17866662,0.831999969 1.14399996,1.0053333 1.14399996,1.26533329 L1.14399996,1.45599995 L1.9066666,1.45599995 L1.9066666,1.8026666 L1.9066666,1.8026666 Z"></path>
                        <path d="M4.83599982,2.94666656 C4.83599982,3.43199987 4.71466649,3.81333319 4.47199984,4.09066652 C4.22933318,4.36799984 3.88266652,4.5066665 3.44933321,4.5066665 C3.18933322,4.5066665 2.94666656,4.43733317 2.73866657,4.31599984 C2.53066657,4.19466651 2.37466658,4.00399985 2.25333325,3.77866653 C2.13199992,3.53599987 2.07999992,3.27599988 2.07999992,2.94666656 C2.07999992,2.46133324 2.20133325,2.07999992 2.44399991,1.8026666 C2.68666657,1.52533328 3.03333322,1.38666662 3.46666654,1.38666662 C3.88266652,1.38666662 4.21199985,1.52533328 4.47199984,1.8026666 C4.71466649,2.09733326 4.83599982,2.47866658 4.83599982,2.94666656 Z M2.56533324,2.94666656 C2.56533324,3.32799988 2.63466657,3.62266653 2.79066656,3.81333319 C2.94666656,4.02133319 3.17199988,4.10799985 3.46666654,4.10799985 C3.7613332,4.10799985 3.98666652,4.00399985 4.14266651,3.81333319 C4.29866651,3.6053332 4.36799984,3.32799988 4.36799984,2.92933323 C4.36799984,2.54799991 4.29866651,2.25333325 4.14266651,2.06266659 C3.98666652,1.87199993 3.7613332,1.76799994 3.46666654,1.76799994 C3.17199988,1.76799994 2.94666656,1.87199993 2.79066656,2.06266659 C2.63466657,2.27066658 2.56533324,2.56533324 2.56533324,2.94666656 Z"></path>
                        <path d="M6.79466642,1.40399995 C6.93333308,1.40399995 7.05466641,1.42133328 7.1586664,1.43866661 L7.08933307,1.8546666 C6.96799974,1.81999993 6.86399975,1.81999993 6.75999975,1.81999993 C6.51733309,1.81999993 6.3093331,1.92399993 6.13599977,2.11466659 C5.96266645,2.30533325 5.87599978,2.54799991 5.87599978,2.84266656 L5.87599978,4.4546665 L5.42533313,4.4546665 L5.42533313,1.45599995 L5.80666645,1.45599995 L5.85866645,2.01066659 L5.87599978,2.01066659 C5.97999978,1.81999993 6.11866644,1.66399994 6.27466644,1.55999994 C6.44799976,1.45599995 6.62133309,1.40399995 6.79466642,1.40399995 Z"></path>
                        <polygon points="11.3533329 4.4546665 9.13466633 4.4546665 9.13466633 0.467999983 11.3533329 0.467999983 11.3533329 0.883999968 9.58533298 0.883999968 9.58533298 2.16666659 11.2319996 2.16666659 11.2319996 2.58266657 9.58533298 2.58266657 9.58533298 4.05599985 11.3533329 4.05599985"></polygon>
                        <path d="M13.9533328,4.4546665 L13.9533328,2.51333324 C13.9533328,2.27066658 13.9013328,2.07999992 13.7799995,1.95866659 C13.6759995,1.83733327 13.5026662,1.78533327 13.2599995,1.78533327 C12.9479995,1.78533327 12.7226662,1.87199993 12.5666662,2.04533326 C12.4279995,2.21866659 12.3413329,2.49599991 12.3413329,2.87733323 L12.3413329,4.4546665 L11.8906662,4.4546665 L11.8906662,1.45599995 L12.2546662,1.45599995 L12.3239995,1.87199993 L12.3413329,1.87199993 C12.4279995,1.71599994 12.5666662,1.61199994 12.7399995,1.52533328 C12.9133329,1.43866661 13.0866662,1.40399995 13.2946662,1.40399995 C13.6586662,1.40399995 13.9186662,1.49066661 14.1093328,1.66399994 C14.2999995,1.83733327 14.3866661,2.11466659 14.3866661,2.49599991 L14.3866661,4.4546665 L13.9533328,4.4546665 L13.9533328,4.4546665 Z"></path>
                        <path d="M16.1199994,4.12533318 C16.2066661,4.12533318 16.2759994,4.12533318 16.3453327,4.10799985 C16.4146661,4.09066652 16.4839994,4.09066652 16.5186661,4.07333318 L16.5186661,4.41999984 C16.4666661,4.43733317 16.3973327,4.4546665 16.2933327,4.47199984 C16.1893327,4.48933317 16.1199994,4.48933317 16.0333327,4.48933317 C15.4613328,4.48933317 15.1666661,4.17733318 15.1666661,3.57066654 L15.1666661,1.78533327 L14.7333328,1.78533327 L14.7333328,1.55999994 L15.1666661,1.36933328 L15.3573328,0.727999973 L15.6173328,0.727999973 L15.6173328,1.42133328 L16.4839994,1.42133328 L16.4839994,1.76799994 L15.6173328,1.76799994 L15.6173328,3.53599987 C15.6173328,3.7093332 15.6519994,3.84799986 15.7386661,3.95199986 C15.8599994,4.07333318 15.9813327,4.12533318 16.1199994,4.12533318 Z"></path>
                        <path d="M18.338666,1.40399995 C18.4773327,1.40399995 18.598666,1.42133328 18.702666,1.43866661 L18.6333326,1.8546666 C18.5119993,1.81999993 18.4079993,1.81999993 18.3039993,1.81999993 C18.0613327,1.81999993 17.8533327,1.92399993 17.6799994,2.11466659 C17.506666,2.30533325 17.4199994,2.54799991 17.4199994,2.84266656 L17.4199994,4.4546665 L16.986666,4.4546665 L16.986666,1.45599995 L17.3679994,1.45599995 L17.4199994,2.01066659 L17.4373327,2.01066659 C17.5413327,1.81999993 17.6799994,1.66399994 17.8359993,1.55999994 C17.9919993,1.45599995 18.1653327,1.40399995 18.338666,1.40399995 Z"></path>
                        <path d="M20.2973326,4.5066665 C19.8466659,4.5066665 19.4999993,4.36799984 19.2573326,4.10799985 C18.9973326,3.83066653 18.8759993,3.46666654 18.8759993,2.98133322 C18.8759993,2.49599991 18.9973326,2.11466659 19.2399993,1.83733327 C19.482666,1.55999994 19.7946659,1.40399995 20.1933326,1.40399995 C20.5746659,1.40399995 20.8693326,1.52533328 21.0773326,1.76799994 C21.3026659,2.01066659 21.4066659,2.33999991 21.4066659,2.73866657 L21.4066659,3.03333322 L19.3439993,3.03333322 C19.3613326,3.37999988 19.4479993,3.6573332 19.6039993,3.83066653 C19.7773326,4.02133319 20.0026659,4.10799985 20.3146659,4.10799985 C20.6439992,4.10799985 20.9559992,4.03866652 21.2679992,3.89999986 L21.2679992,4.29866651 C21.1119992,4.36799984 20.9559992,4.41999984 20.8173326,4.4546665 C20.6786659,4.48933317 20.5053326,4.5066665 20.2973326,4.5066665 Z M20.1759993,1.78533327 C19.9333326,1.78533327 19.7426659,1.87199993 19.6039993,2.02799993 C19.4653326,2.18399992 19.378666,2.40933324 19.3439993,2.68666657 L20.9039992,2.68666657 C20.9039992,2.40933324 20.8346659,2.18399992 20.7133326,2.02799993 C20.5919992,1.8546666 20.4186659,1.78533327 20.1759993,1.78533327 Z"></path>
                        <path d="M23.3653325,4.5066665 C23.1746658,4.5066665 22.9839992,4.47199984 22.8279992,4.40266651 C22.6719992,4.33333317 22.5333325,4.21199985 22.4293325,4.07333318 L22.3946658,4.07333318 C22.4119992,4.24666651 22.4293325,4.41999984 22.4293325,4.57599983 L22.4293325,5.80666645 L21.9786659,5.80666645 L21.9786659,1.47333328 L22.3426658,1.47333328 L22.4119992,1.88933326 L22.4293325,1.88933326 C22.5506658,1.73333327 22.6893325,1.61199994 22.8279992,1.54266661 C22.9839992,1.47333328 23.1573325,1.43866661 23.3653325,1.43866661 C23.7639991,1.43866661 24.0759991,1.57733328 24.2839991,1.83733327 C24.4919991,2.11466659 24.6133324,2.49599991 24.6133324,2.98133322 C24.6133324,3.46666654 24.5093324,3.84799986 24.2839991,4.12533318 C24.0586658,4.36799984 23.7639991,4.5066665 23.3653325,4.5066665 Z M23.3133325,1.78533327 C23.0013325,1.78533327 22.7933325,1.87199993 22.6546658,2.04533326 C22.5159992,2.21866659 22.4466658,2.47866658 22.4466658,2.8599999 L22.4466658,2.96399989 C22.4466658,3.37999988 22.5159992,3.69199986 22.6546658,3.86533319 C22.7933325,4.03866652 23.0186658,4.14266651 23.3306658,4.14266651 C23.5906658,4.14266651 23.7986658,4.03866652 23.9373325,3.83066653 C24.0759991,3.62266653 24.1626658,3.32799988 24.1626658,2.96399989 C24.1626658,2.58266657 24.0933324,2.30533325 23.9373325,2.09733326 C23.7813325,1.88933326 23.5733325,1.78533327 23.3133325,1.78533327 Z"></path>
                        <path d="M26.571999,1.40399995 C26.7106657,1.40399995 26.831999,1.42133328 26.935999,1.43866661 L26.8666657,1.8546666 C26.7453324,1.81999993 26.6413324,1.81999993 26.5373324,1.81999993 C26.2946657,1.81999993 26.0866657,1.92399993 25.9133324,2.11466659 C25.7399991,2.30533325 25.6533324,2.54799991 25.6533324,2.84266656 L25.6533324,4.4546665 L25.2026657,4.4546665 L25.2026657,1.45599995 L25.5839991,1.45599995 L25.6359991,2.01066659 L25.6533324,2.01066659 C25.7573324,1.81999993 25.8959991,1.66399994 26.051999,1.55999994 C26.2253324,1.45599995 26.3986657,1.40399995 26.571999,1.40399995 Z"></path>
                        <path d="M28.5306656,4.5066665 C28.079999,4.5066665 27.7333323,4.36799984 27.4906657,4.10799985 C27.2306657,3.83066653 27.1093323,3.46666654 27.1093323,2.98133322 C27.1093323,2.49599991 27.2306657,2.11466659 27.4733323,1.83733327 C27.715999,1.55999994 28.027999,1.40399995 28.4266656,1.40399995 C28.8079989,1.40399995 29.1026656,1.52533328 29.3106656,1.76799994 C29.5359989,2.01066659 29.6399989,2.33999991 29.6399989,2.73866657 L29.6399989,3.03333322 L27.5773323,3.03333322 C27.5946657,3.37999988 27.6813323,3.6573332 27.8373323,3.83066653 C28.0106656,4.02133319 28.235999,4.10799985 28.547999,4.10799985 C28.8773323,4.10799985 29.1893323,4.03866652 29.5013323,3.89999986 L29.5013323,4.29866651 C29.3453323,4.36799984 29.1893323,4.41999984 29.0506656,4.4546665 C28.9119989,4.48933317 28.7386656,4.5066665 28.5306656,4.5066665 Z M28.4093323,1.78533327 C28.1666656,1.78533327 27.975999,1.87199993 27.8373323,2.02799993 C27.6986657,2.18399992 27.611999,2.40933324 27.5773323,2.68666657 L29.1373323,2.68666657 C29.1373323,2.40933324 29.0679989,2.18399992 28.9466656,2.02799993 C28.8253323,1.8546666 28.6519989,1.78533327 28.4093323,1.78533327 Z"></path>
                        <path d="M32.2573322,4.4546665 L32.2573322,2.51333324 C32.2573322,2.27066658 32.2053322,2.07999992 32.0839988,1.95866659 C31.9799988,1.83733327 31.8066655,1.78533327 31.5639988,1.78533327 C31.2519989,1.78533327 31.0266655,1.87199993 30.8706655,2.04533326 C30.7319989,2.21866659 30.6453322,2.49599991 30.6453322,2.87733323 L30.6453322,4.4546665 L30.1946656,4.4546665 L30.1946656,1.45599995 L30.5586655,1.45599995 L30.6279989,1.87199993 L30.6453322,1.87199993 C30.7319989,1.71599994 30.8706655,1.61199994 31.0439989,1.52533328 C31.2173322,1.43866661 31.3906655,1.40399995 31.5986655,1.40399995 C31.9626655,1.40399995 32.2226655,1.49066661 32.4133321,1.66399994 C32.6039988,1.83733327 32.6906655,2.11466659 32.6906655,2.49599991 L32.6906655,4.4546665 L32.2573322,4.4546665 L32.2573322,4.4546665 Z"></path>
                        <path d="M34.7186654,4.5066665 C34.2679987,4.5066665 33.9213321,4.36799984 33.6786654,4.10799985 C33.4186654,3.83066653 33.2973321,3.46666654 33.2973321,2.98133322 C33.2973321,2.49599991 33.4186654,2.11466659 33.6613321,1.83733327 C33.9039988,1.55999994 34.2159987,1.40399995 34.6146654,1.40399995 C34.9959987,1.40399995 35.2906654,1.52533328 35.4986654,1.76799994 C35.7239987,2.01066659 35.8279987,2.33999991 35.8279987,2.73866657 L35.8279987,3.03333322 L33.7653321,3.03333322 C33.7826654,3.37999988 33.8693321,3.6573332 34.0253321,3.83066653 C34.1986654,4.02133319 34.4239987,4.10799985 34.7359987,4.10799985 C35.065332,4.10799985 35.377332,4.03866652 35.689332,3.89999986 L35.689332,4.29866651 C35.533332,4.36799984 35.377332,4.41999984 35.2386654,4.4546665 C35.0999987,4.48933317 34.9266654,4.5066665 34.7186654,4.5066665 Z M34.5973321,1.78533327 C34.3546654,1.78533327 34.1639987,1.87199993 34.0253321,2.02799993 C33.8866654,2.18399992 33.7999988,2.40933324 33.7653321,2.68666657 L35.325332,2.68666657 C35.325332,2.40933324 35.2559987,2.18399992 35.1346654,2.02799993 C35.013332,1.8546666 34.8399987,1.78533327 34.5973321,1.78533327 Z"></path>
                        <path d="M36.8159986,1.45599995 L36.8159986,3.39733321 C36.8159986,3.63999987 36.8679986,3.83066653 36.989332,3.95199986 C37.093332,4.07333318 37.2666653,4.12533318 37.509332,4.12533318 C37.8213319,4.12533318 38.0466653,4.03866652 38.2026653,3.86533319 C38.3413319,3.69199986 38.4279986,3.41466654 38.4279986,3.03333322 L38.4279986,1.45599995 L38.8786652,1.45599995 L38.8786652,4.4546665 L38.4973319,4.4546665 L38.4279986,4.05599985 L38.4106653,4.05599985 C38.3239986,4.21199985 38.1853319,4.31599984 38.0293319,4.40266651 C37.8559986,4.48933317 37.6826653,4.52399983 37.457332,4.52399983 C37.093332,4.52399983 36.8159986,4.43733317 36.6426653,4.26399984 C36.469332,4.09066652 36.365332,3.81333319 36.365332,3.43199987 L36.365332,1.47333328 L36.8159986,1.47333328 L36.8159986,1.45599995 Z"></path>
                        <path d="M40.9759985,1.40399995 C41.1146652,1.40399995 41.2359985,1.42133328 41.3399985,1.43866661 L41.2706652,1.8546666 C41.1493318,1.81999993 41.0453318,1.81999993 40.9413318,1.81999993 C40.6986652,1.81999993 40.4906652,1.92399993 40.3173319,2.11466659 C40.1439985,2.30533325 40.0573319,2.54799991 40.0573319,2.84266656 L40.0573319,4.4546665 L39.6066652,4.4546665 L39.6066652,1.45599995 L39.9879985,1.45599995 L40.0399985,2.01066659 L40.0573319,2.01066659 C40.1613319,1.81999993 40.2999985,1.66399994 40.4559985,1.55999994 C40.6119985,1.45599995 40.7853318,1.40399995 40.9759985,1.40399995 Z"></path>
                        <path d="M43.7319984,3.62266653 C43.7319984,3.89999986 43.6279984,4.10799985 43.4199984,4.26399984 C43.2119984,4.41999984 42.9173318,4.48933317 42.5533318,4.48933317 C42.1546651,4.48933317 41.8426651,4.41999984 41.6173318,4.29866651 L41.6173318,3.88266652 C41.7559985,3.95199986 41.9119985,4.02133319 42.0853318,4.05599985 C42.2586651,4.09066652 42.4146651,4.12533318 42.5533318,4.12533318 C42.7959984,4.12533318 42.9693318,4.09066652 43.1079984,4.00399985 C43.2293317,3.93466652 43.2986651,3.81333319 43.2986651,3.6573332 C43.2986651,3.53599987 43.2466651,3.44933321 43.1426651,3.36266654 C43.0386651,3.27599988 42.8479984,3.18933322 42.5533318,3.06799989 C42.2759984,2.96399989 42.0853318,2.87733323 41.9639985,2.79066656 C41.8426651,2.72133323 41.7559985,2.61733324 41.7039985,2.53066657 C41.6519985,2.42666658 41.6173318,2.32266658 41.6173318,2.18399992 C41.6173318,1.94133326 41.7213318,1.7506666 41.9119985,1.61199994 C42.1026651,1.47333328 42.3799984,1.40399995 42.7266651,1.40399995 C43.0559984,1.40399995 43.3679984,1.47333328 43.6799984,1.59466661 L43.5239984,1.95866659 C43.2293317,1.83733327 42.9519984,1.76799994 42.7093318,1.76799994 C42.5013318,1.76799994 42.3279984,1.8026666 42.2239985,1.87199993 C42.1199985,1.94133326 42.0679985,2.02799993 42.0679985,2.14933325 C42.0679985,2.23599992 42.0853318,2.30533325 42.1373318,2.35733325 C42.1719985,2.40933324 42.2413318,2.46133324 42.3279984,2.51333324 C42.4146651,2.56533324 42.5879984,2.63466657 42.8479984,2.73866657 C43.1946651,2.8599999 43.4373317,2.99866656 43.5759984,3.13733322 C43.6799984,3.25866655 43.7319984,3.43199987 43.7319984,3.62266653 Z"></path>
                    </g>
                    <g transform="translate(0.000000, 0.173333)" id="Shape">
                        <path d="M2.56533324,1.43866661 C2.56533324,1.83733327 2.42666658,2.14933325 2.14933325,2.37466658 C1.87199993,2.5999999 1.47333328,2.7039999 0.970666631,2.7039999 L0.502666648,2.7039999 L0.502666648,4.28133318 L0.0346666654,4.28133318 L0.0346666654,0.294666656 L1.07466663,0.294666656 C2.06266659,0.277333323 2.56533324,0.675999975 2.56533324,1.43866661 Z M0.485333316,2.30533325 L0.9013333,2.30533325 C1.31733329,2.30533325 1.61199994,2.23599992 1.8026666,2.09733326 C1.99333326,1.95866659 2.07999992,1.7506666 2.07999992,1.45599995 C2.07999992,1.19599996 1.99333326,0.987999964 1.81999993,0.866666635 C1.64666661,0.745333306 1.36933328,0.675999975 1.0053333,0.675999975 L0.485333316,0.675999975 L0.485333316,2.30533325 Z"></path>
                        <path d="M5.65066646,2.77333323 C5.65066646,3.25866655 5.52933313,3.63999987 5.28666647,3.91733319 C5.04399981,4.19466651 4.69733316,4.33333317 4.26399984,4.33333317 C4.00399985,4.33333317 3.7613332,4.26399984 3.5533332,4.14266651 C3.34533321,4.02133319 3.18933322,3.83066653 3.06799989,3.6053332 C2.94666656,3.36266654 2.89466656,3.10266655 2.89466656,2.77333323 C2.89466656,2.28799992 3.01599989,1.9066666 3.25866655,1.62933327 C3.5013332,1.35199995 3.84799986,1.21333329 4.28133318,1.21333329 C4.69733316,1.21333329 5.02666648,1.35199995 5.28666647,1.62933327 C5.52933313,1.92399993 5.65066646,2.30533325 5.65066646,2.77333323 Z M3.36266654,2.77333323 C3.36266654,3.15466655 3.43199987,3.44933321 3.58799987,3.63999987 C3.74399986,3.84799986 3.96933319,3.93466652 4.26399984,3.93466652 C4.5586665,3.93466652 4.78399982,3.83066653 4.93999982,3.63999987 C5.09599981,3.43199987 5.16533314,3.15466655 5.16533314,2.7559999 C5.16533314,2.37466658 5.09599981,2.07999992 4.93999982,1.88933326 C4.78399982,1.6986666 4.5586665,1.59466661 4.26399984,1.59466661 C3.96933319,1.59466661 3.74399986,1.6986666 3.58799987,1.88933326 C3.44933321,2.09733326 3.36266654,2.39199991 3.36266654,2.77333323 Z"></path>
                        <path d="M8.70133301,4.28133318 L8.14666637,2.53066657 C8.1119997,2.42666658 8.04266637,2.18399992 7.95599971,1.8026666 L7.93866638,1.8026666 C7.86933304,2.11466659 7.79999971,2.37466658 7.74799972,2.54799991 L7.17599974,4.29866651 L6.65599976,4.29866651 L5.84133312,1.29999995 L6.3093331,1.29999995 C6.49999976,2.04533326 6.65599976,2.61733324 6.74266642,3.01599989 C6.84666642,3.41466654 6.89866641,3.67466653 6.91599975,3.81333319 L6.93333308,3.81333319 C6.95066641,3.7093332 6.98533308,3.57066654 7.03733308,3.41466654 C7.08933307,3.24133321 7.12399974,3.11999989 7.1586664,3.01599989 L7.71333305,1.29999995 L8.19866637,1.29999995 L8.73599968,3.01599989 C8.83999968,3.32799988 8.90933301,3.58799987 8.94399967,3.81333319 L8.961333,3.81333319 C8.961333,3.74399986 8.99599967,3.63999987 9.013333,3.51866654 C9.04799967,3.37999988 9.23866633,2.6519999 9.58533298,1.31733329 L10.053333,1.31733329 L9.221333,4.31599984 L8.70133301,4.31599984 L8.70133301,4.28133318 Z"></path>
                        <path d="M11.6826662,4.33333317 C11.2319996,4.33333317 10.8853329,4.19466651 10.6426663,3.93466652 C10.3826663,3.6573332 10.261333,3.29333321 10.261333,2.8079999 C10.261333,2.32266658 10.3826663,1.94133326 10.6253329,1.66399994 C10.8679996,1.38666662 11.1799996,1.23066662 11.5786662,1.23066662 C11.9599996,1.23066662 12.2546662,1.35199995 12.4626662,1.59466661 C12.6879995,1.83733327 12.7919995,2.16666659 12.7919995,2.56533324 L12.7919995,2.8599999 L10.7293329,2.8599999 C10.7466663,3.20666655 10.8333329,3.48399987 10.9893329,3.6573332 C11.1626663,3.84799986 11.3879996,3.93466652 11.6999996,3.93466652 C12.0293329,3.93466652 12.3413329,3.86533319 12.6533329,3.72666653 L12.6533329,4.12533318 C12.4973329,4.19466651 12.3413329,4.24666651 12.2026662,4.28133318 C12.0466662,4.31599984 11.8733329,4.33333317 11.6826662,4.33333317 Z M11.5439996,1.61199994 C11.3013329,1.61199994 11.1106663,1.6986666 10.9719996,1.8546666 C10.8333329,2.01066659 10.7466663,2.23599992 10.7119996,2.51333324 L12.2719995,2.51333324 C12.2719995,2.23599992 12.2026662,2.01066659 12.0813329,1.8546666 C11.9773329,1.68133327 11.7866662,1.61199994 11.5439996,1.61199994 Z"></path>
                        <path d="M14.7159995,1.23066662 C14.8546661,1.23066662 14.9759995,1.24799995 15.0799994,1.26533329 L15.0106661,1.68133327 C14.8893328,1.64666661 14.7853328,1.64666661 14.6813328,1.64666661 C14.4386661,1.64666661 14.2306661,1.7506666 14.0573328,1.94133326 C13.8839995,2.13199992 13.7973328,2.37466658 13.7973328,2.66933324 L13.7973328,4.28133318 L13.3466662,4.28133318 L13.3466662,1.28266662 L13.7279995,1.28266662 L13.7799995,1.83733327 L13.7973328,1.83733327 C13.9013328,1.64666661 14.0399995,1.49066661 14.1959995,1.38666662 C14.3519995,1.28266662 14.5253328,1.23066662 14.7159995,1.23066662 Z"></path>
                        <path d="M16.6746661,4.33333317 C16.2239994,4.33333317 15.8773328,4.19466651 15.6346661,3.93466652 C15.3746661,3.6573332 15.2533328,3.29333321 15.2533328,2.8079999 C15.2533328,2.32266658 15.3746661,1.94133326 15.6173328,1.66399994 C15.8599994,1.38666662 16.1719994,1.23066662 16.5706661,1.23066662 C16.9519994,1.23066662 17.246666,1.35199995 17.454666,1.59466661 C17.6799994,1.83733327 17.7839993,2.16666659 17.7839993,2.56533324 L17.7839993,2.8599999 L15.7213328,2.8599999 C15.7386661,3.20666655 15.8253328,3.48399987 15.9813327,3.6573332 C16.1546661,3.84799986 16.3799994,3.93466652 16.6919994,3.93466652 C17.0213327,3.93466652 17.3333327,3.86533319 17.6453327,3.72666653 L17.6453327,4.12533318 C17.4893327,4.19466651 17.3333327,4.24666651 17.194666,4.28133318 C17.0559994,4.31599984 16.882666,4.33333317 16.6746661,4.33333317 Z M16.5533327,1.61199994 C16.3106661,1.61199994 16.1199994,1.6986666 15.9813327,1.8546666 C15.8426661,2.01066659 15.7559994,2.23599992 15.7213328,2.51333324 L17.2813327,2.51333324 C17.2813327,2.23599992 17.2119994,2.01066659 17.090666,1.8546666 C16.9693327,1.68133327 16.7786661,1.61199994 16.5533327,1.61199994 Z"></path>
                        <path d="M20.4186659,3.86533319 L20.4013326,3.86533319 C20.1933326,4.17733318 19.8813326,4.31599984 19.4653326,4.31599984 C19.066666,4.31599984 18.7719993,4.17733318 18.546666,3.91733319 C18.3213327,3.6573332 18.2173327,3.27599988 18.2173327,2.77333323 C18.2173327,2.28799992 18.3213327,1.88933326 18.546666,1.62933327 C18.7719993,1.35199995 19.066666,1.21333329 19.4653326,1.21333329 C19.8639993,1.21333329 20.1759993,1.36933328 20.4013326,1.66399994 L20.4359993,1.66399994 L20.4186659,1.45599995 L20.4013326,1.24799995 L20.4013326,0.0346666654 L20.8519992,0.0346666654 L20.8519992,4.28133318 L20.4879992,4.28133318 L20.4186659,3.86533319 Z M19.5173326,3.95199986 C19.8293326,3.95199986 20.0546659,3.86533319 20.1933326,3.69199986 C20.3319993,3.51866654 20.4013326,3.25866655 20.4013326,2.87733323 L20.4013326,2.77333323 C20.4013326,2.35733325 20.3319993,2.04533326 20.1933326,1.87199993 C20.0546659,1.6986666 19.8293326,1.59466661 19.5173326,1.59466661 C19.2573326,1.59466661 19.0493326,1.6986666 18.910666,1.9066666 C18.7719993,2.11466659 18.702666,2.40933324 18.702666,2.77333323 C18.702666,3.15466655 18.7719993,3.44933321 18.910666,3.63999987 C19.0319993,3.84799986 19.2399993,3.95199986 19.5173326,3.95199986 Z"></path>
                        <path d="M24.5439991,1.23066662 C24.9426658,1.23066662 25.2373324,1.36933328 25.4626657,1.62933327 C25.6879991,1.88933326 25.7919991,2.27066658 25.7919991,2.77333323 C25.7919991,3.25866655 25.6879991,3.63999987 25.4626657,3.91733319 C25.2373324,4.19466651 24.9426658,4.33333317 24.5439991,4.33333317 C24.3533324,4.33333317 24.1626658,4.29866651 24.0066658,4.22933318 C23.8506658,4.15999985 23.7119991,4.03866652 23.6079991,3.89999986 L23.5733325,3.89999986 L23.4693325,4.28133318 L23.1399992,4.28133318 L23.1399992,0.0346666654 L23.5906658,0.0346666654 L23.5906658,1.07466663 C23.5906658,1.29999995 23.5906658,1.50799994 23.5733325,1.6986666 L23.5906658,1.6986666 C23.8159991,1.38666662 24.1279991,1.23066662 24.5439991,1.23066662 Z M24.4746658,1.61199994 C24.1626658,1.61199994 23.9373325,1.6986666 23.7986658,1.87199993 C23.6599991,2.04533326 23.5906658,2.33999991 23.5906658,2.77333323 C23.5906658,3.18933322 23.6599991,3.5013332 23.7986658,3.67466653 C23.9373325,3.84799986 24.1626658,3.95199986 24.4746658,3.95199986 C24.7519991,3.95199986 24.9599991,3.84799986 25.0986657,3.63999987 C25.2373324,3.43199987 25.3066657,3.13733322 25.3066657,2.7559999 C25.3066657,2.37466658 25.2373324,2.07999992 25.0986657,1.88933326 C24.9773324,1.6986666 24.7693324,1.61199994 24.4746658,1.61199994 Z"></path>
                        <path d="M25.9133324,1.28266662 L26.3986657,1.28266662 L27.0573323,2.98133322 C27.195999,3.36266654 27.2826657,3.6573332 27.3173323,3.83066653 L27.3346657,3.83066653 C27.351999,3.74399986 27.403999,3.57066654 27.4906657,3.36266654 C27.559999,3.13733322 27.819999,2.44399991 28.235999,1.28266662 L28.7213323,1.28266662 L27.4386657,4.69733316 C27.3173323,5.02666648 27.1613323,5.26933314 26.987999,5.4079998 C26.8146657,5.54666646 26.6066657,5.61599979 26.363999,5.61599979 C26.2253324,5.61599979 26.0866657,5.59866646 25.947999,5.5639998 L25.947999,5.19999981 C26.051999,5.21733314 26.155999,5.23466647 26.2773324,5.23466647 C26.5893324,5.23466647 26.8146657,5.06133315 26.935999,4.71466649 L27.1093323,4.28133318 L25.9133324,1.28266662 Z"></path>
                    </g>
                    <g transform="translate(30.159999, 0.000000)">
                        <path d="M0.155999994,2.27066658 C0.155999994,1.02266663 1.19599996,0.0173333327 2.44399991,0.0173333327 C3.13733322,0.0173333327 3.62266653,0.294666656 3.98666652,0.64133331 L3.5533332,1.07466663 C3.29333321,0.831999969 2.92933323,0.64133331 2.44399991,0.64133331 C1.54266661,0.64133331 0.831999969,1.36933328 0.831999969,2.28799992 C0.831999969,3.18933322 1.54266661,3.93466652 2.44399991,3.93466652 C3.03333322,3.93466652 3.36266654,3.69199986 3.58799987,3.48399987 C3.7613332,3.31066655 3.88266652,3.05066655 3.91733319,2.7039999 L2.44399991,2.7039999 L2.44399991,2.07999992 L4.52399983,2.07999992 C4.54133317,2.18399992 4.5586665,2.32266658 4.5586665,2.46133324 C4.5586665,2.92933323 4.43733317,3.5013332 4.02133319,3.89999986 C3.62266653,4.31599984 3.11999989,4.52399983 2.44399991,4.52399983 C1.19599996,4.52399983 0.155999994,3.51866654 0.155999994,2.27066658 Z" id="Shape"></path>
                        <path d="M6.22266644,1.62933327 C5.42533313,1.62933327 4.76666649,2.23599992 4.76666649,3.08533322 C4.76666649,3.91733319 5.42533313,4.54133317 6.22266644,4.54133317 C7.01999974,4.54133317 7.67866639,3.91733319 7.67866639,3.08533322 C7.67866639,2.23599992 7.01999974,1.62933327 6.22266644,1.62933327 Z M6.22266644,3.95199986 C5.78933312,3.95199986 5.4079998,3.58799987 5.4079998,3.06799989 C5.4079998,2.54799991 5.78933312,2.18399992 6.22266644,2.18399992 C6.65599976,2.18399992 7.03733308,2.54799991 7.03733308,3.06799989 C7.03733308,3.58799987 6.65599976,3.95199986 6.22266644,3.95199986 Z" id="Shape"></path>
                        <path d="M9.39466632,1.62933327 C8.59733302,1.62933327 7.93866638,2.23599992 7.93866638,3.08533322 C7.93866638,3.91733319 8.59733302,4.54133317 9.39466632,4.54133317 C10.1919996,4.54133317 10.8506663,3.91733319 10.8506663,3.08533322 C10.8506663,2.23599992 10.209333,1.62933327 9.39466632,1.62933327 Z M9.39466632,3.95199986 C8.961333,3.95199986 8.57999969,3.58799987 8.57999969,3.06799989 C8.57999969,2.54799991 8.961333,2.18399992 9.39466632,2.18399992 C9.82799964,2.18399992 10.209333,2.54799991 10.209333,3.06799989 C10.2266663,3.58799987 9.84533297,3.95199986 9.39466632,3.95199986 Z" id="Shape"></path>
                        <path d="M13.2946662,1.71599994 L13.2946662,1.95866659 L13.2773328,1.95866659 C13.1386662,1.78533327 12.8613329,1.62933327 12.5146662,1.62933327 C11.7866662,1.62933327 11.1279996,2.27066658 11.1279996,3.08533322 C11.1279996,3.89999986 11.7866662,4.52399983 12.5146662,4.52399983 C12.8613329,4.52399983 13.1386662,4.36799984 13.2773328,4.19466651 L13.2946662,4.19466651 L13.2946662,4.40266651 C13.2946662,4.95733315 12.9999995,5.25199981 12.5146662,5.25199981 C12.1159996,5.25199981 11.8906662,4.97466648 11.7866662,4.73199983 L11.2319996,4.95733315 C11.3879996,5.33866647 11.8213329,5.82399979 12.5146662,5.82399979 C13.2599995,5.82399979 13.9013328,5.39066647 13.9013328,4.31599984 L13.9013328,1.71599994 L13.2946662,1.71599994 Z M12.5666662,3.95199986 C12.1333329,3.95199986 11.7519996,3.58799987 11.7519996,3.08533322 C11.7519996,2.56533324 12.1159996,2.20133325 12.5666662,2.20133325 C12.9999995,2.20133325 13.3466662,2.58266657 13.3466662,3.08533322 C13.3466662,3.58799987 12.9999995,3.95199986 12.5666662,3.95199986 Z" id="Shape"></path>
                        <rect id="Rectangle-path" x="14.3519995" y="0.173333327" width="1" height="4.26399984"></rect>
                        <path d="M16.7266661,3.95199986 C16.3973327,3.95199986 16.1719994,3.79599986 16.0159994,3.51866654 L17.9573327,2.72133323 L17.8879993,2.54799991 C17.766666,2.21866659 17.402666,1.62933327 16.6399994,1.62933327 C15.8946661,1.62933327 15.2706661,2.21866659 15.2706661,3.08533322 C15.2706661,3.89999986 15.8946661,4.54133317 16.7093327,4.54133317 C17.3679994,4.54133317 17.766666,4.14266651 17.922666,3.89999986 L17.4199994,3.57066654 C17.2813327,3.79599986 17.0559994,3.95199986 16.7266661,3.95199986 Z M16.6919994,2.18399992 C16.9519994,2.18399992 17.1599994,2.30533325 17.2293327,2.49599991 L15.9293327,3.03333322 C15.9119994,2.46133324 16.3626661,2.18399992 16.6919994,2.18399992 Z" id="Shape"></path>
                    </g>
                </g>
                <g id="Shape">
                    <g transform="translate(157.039994, 0.000000)">
                        <polygon points="1.87199993 0.0346666654 1.87199993 0.485333316 1.24799995 0.485333316 1.24799995 2.11466659 0.710666641 2.11466659 0.710666641 0.485333316 0.0866666635 0.485333316 0.0866666635 0.0346666654"></polygon>
                        <polygon points="2.63466657 0.0346666654 3.18933322 1.24799995 3.74399986 0.0346666654 4.33333317 0.0346666654 4.33333317 2.11466659 3.84799986 2.11466659 3.84799986 0.797333304 3.36266654 1.9066666 2.99866656 1.9066666 2.51333324 0.797333304 2.51333324 2.11466659 2.02799993 2.11466659 2.02799993 0.0346666654"></polygon>
                    </g>
                    <path d="M28.5826656,7.3146664 L28.5826656,14.5599995 L24.9773324,14.5599995 L24.9773324,13.2946662 C24.2493324,14.2306661 23.1226658,14.7159995 21.6146659,14.7159995 C19.222666,14.7159995 17.8013327,13.2773328 17.8013327,11.2319996 C17.8013327,9.09999967 19.3093326,7.88666638 22.0653325,7.85199971 L24.9773324,7.85199971 L24.9773324,7.73066638 C24.9773324,6.67333309 24.2493324,6.06666644 22.8453325,6.06666644 C21.9093325,6.06666644 20.6959992,6.37866643 19.4999993,6.95066641 L18.494666,4.47199984 C20.2453326,3.69199986 21.8573325,3.25866655 23.6946658,3.25866655 C26.779999,3.25866655 28.5653323,4.74933316 28.5826656,7.3146664 Z M24.9773324,10.7986663 L24.9773324,9.82799964 L22.7933325,9.82799964 C21.7706659,9.82799964 21.2506659,10.1919996 21.2506659,10.9893329 C21.2506659,11.7519996 21.8053325,12.2546662 22.7586658,12.2546662 C23.8506658,12.2373329 24.7519991,11.6306662 24.9773324,10.7986663 Z"></path>
                    <path d="M44.442665,14.1093328 C43.6453317,14.5773328 42.5186651,14.8546661 41.4266651,14.8546661 C39.2599986,14.8719995 37.6999986,13.5893328 37.6999986,11.2839996 L37.6999986,6.49999976 L37.6999986,4.07333318 L37.6999986,1.0053333 L41.3573318,1.0053333 L41.3573318,4.07333318 L44.2519984,4.07333318 L44.2519984,6.70799975 L41.3573318,6.70799975 L41.3573318,10.7119996 C41.3573318,11.5439996 41.7213318,11.9079996 42.3626651,11.8906662 C42.7266651,11.8906662 43.2119984,11.7519996 43.7493317,11.5266662 L44.442665,14.1093328 Z"></path>
                    <path d="M36.8159986,3.39733321 L36.8159986,6.75999975 C34.7706654,6.55199976 33.4186654,7.45333306 33.2279988,9.013333 L33.2279988,14.6986661 L29.5533322,14.6986661 L29.5533322,3.53599987 L33.2279988,3.53599987 L33.2279988,5.39066647 C33.9906654,4.12533318 35.2559987,3.39733321 36.8159986,3.39733321 Z"></path>
                    <path d="M56.2986646,3.77866653 L56.2986646,14.9413328 L52.6239981,14.9413328 L52.6239981,13.1213329 C51.8613314,14.4213328 50.6479981,15.0799994 49.0533315,15.0973328 C46.6439983,15.0973328 45.066665,13.4333328 45.066665,10.8333329 L45.066665,3.77866653 L48.7413315,3.77866653 L48.7413315,9.77599964 C48.7413315,11.0413329 49.4346649,11.8039996 50.5266648,11.8039996 C51.8266648,11.7866662 52.6066647,10.7466663 52.6066647,9.29066633 L52.6066647,3.77866653 L56.2986646,3.77866653 L56.2986646,3.77866653 Z"></path>
                    <path d="M10.7813329,0.987999964 L14.4386661,0.987999964 L14.4386661,4.05599985 L17.3333327,4.05599985 L17.3333327,6.70799975 L14.4386661,6.70799975 L14.4386661,10.6946663 C14.4386661,11.5266662 14.8026661,11.8906662 15.4439994,11.8733329 C15.8079994,11.8733329 16.2933327,11.7346662 16.830666,11.5093329 L17.5239994,14.1093328 C16.7266661,14.5773328 15.5999994,14.8546661 14.5079995,14.8546661 C12.3413329,14.8719995 10.7813329,13.5893328 10.7813329,11.2839996 L10.7813329,0.987999964 L10.7813329,0.987999964 Z"></path>
                    <path d="M69.4719975,9.44666632 C69.4719975,12.8439995 67.4439975,15.0973328 64.3586643,15.0973328 C62.937331,15.0973328 61.7759977,14.5426661 60.9959978,13.5373328 L60.9959978,18.9799993 L57.3213312,18.9799993 L57.3213312,3.81333319 L60.9959978,3.81333319 L60.9959978,5.25199981 C61.7759977,4.24666651 62.885331,3.69199986 64.2719976,3.69199986 C67.3919975,3.69199986 69.4719975,5.97999978 69.4719975,9.44666632 Z M65.7799976,9.35999966 C65.7799976,7.71333305 64.809331,6.56933309 63.3706643,6.56933309 C61.9666644,6.56933309 60.9959978,7.69599972 60.9959978,9.35999966 C60.9959978,11.0066663 61.9666644,12.1159996 63.3706643,12.1159996 C64.809331,12.1333329 65.7799976,11.0066663 65.7799976,9.35999966 Z"></path>
                    <path d="M0.121333329,13.0346662 L1.59466661,10.6426663 C2.89466656,11.4919996 4.29866651,11.9426662 5.47733313,11.9426662 C6.17066644,11.9426662 6.48266643,11.7346662 6.48266643,11.3359996 L6.48266643,11.3013329 C6.48266643,10.8679996 5.85866645,10.6773329 4.6626665,10.3479996 C2.42666658,9.75866631 0.658666643,9.013333 0.658666643,6.74266642 L0.658666643,6.70799975 C0.658666643,4.31599984 2.58266657,2.98133322 5.18266648,2.98133322 C6.82933308,2.98133322 8.54533302,3.46666654 9.82799964,4.29866651 L8.47599969,6.79466642 C7.3146664,6.15333311 6.03199978,5.75466646 5.13066648,5.75466646 C4.52399983,5.75466646 4.21199985,5.97999978 4.21199985,6.29199977 L4.21199985,6.32666643 C4.21199985,6.75999975 4.85333316,6.96799974 6.04933311,7.33199973 C8.28533303,7.95599971 10.053333,8.73599968 10.053333,10.9199996 L10.053333,10.9546663 C10.053333,13.4333328 8.19866637,14.7333328 5.44266647,14.7333328 C3.5533332,14.6986661 1.68133327,14.1613328 0.121333329,13.0346662 Z"></path>
                    <path d="M96.5119965,10.0359996 L88.6599967,10.0359996 C89.0066634,11.3013329 89.9599967,12.0119996 91.22533,12.0119996 C92.1786633,12.0119996 93.1319966,11.6133329 93.8773299,10.8679996 L95.8186632,12.8093329 C94.6746632,14.1093328 92.9759966,14.8199995 90.8959967,14.8199995 C87.2039968,14.8199995 84.9333302,12.5493329 84.9333302,9.09999967 C84.9333302,5.59866646 87.2906635,3.27599988 90.8266633,3.27599988 C94.7439965,3.27599988 96.7546631,5.92799978 96.5119965,10.0359996 Z M92.9066633,8.0599997 C92.9066633,6.75999975 92.0746633,5.89333312 90.8266633,5.89333312 C89.61333,5.89333312 88.8159967,6.77733308 88.5733301,8.0599997 L92.9066633,8.0599997 Z"></path>
                    <path d="M108.662663,10.0359996 L100.810663,10.0359996 C101.15733,11.3013329 102.110663,12.0119996 103.375996,12.0119996 C104.32933,12.0119996 105.282663,11.6133329 106.027996,10.8679996 L107.969329,12.8093329 C106.825329,14.1093328 105.126663,14.8199995 103.046663,14.8199995 C99.354663,14.8199995 97.0839964,12.5493329 97.0839964,9.09999967 C97.0839964,5.59866646 99.4413297,3.27599988 102.97733,3.27599988 C106.894663,3.27599988 108.905329,5.92799978 108.662663,10.0359996 Z M105.057329,8.04266637 C105.057329,6.74266642 104.22533,5.87599978 102.97733,5.87599978 C101.763996,5.87599978 100.966663,6.75999975 100.723996,8.04266637 L105.057329,8.04266637 Z"></path>
                    <polygon points="120.293329 3.88266652 115.803996 3.88266652 113.047996 7.00266641 113.047996 0.0519999981 109.338663 0.0519999981 109.338663 14.8199995 113.047996 14.8199995 113.047996 11.7519996 113.047996 10.7813329 115.925329 14.6639995 120.085329 14.6639995 115.925329 8.92666634"></polygon>
                    <path d="M130.589329,10.157333 L122.737329,10.157333 C123.083995,11.4226662 124.037329,12.1333329 125.302662,12.1333329 C126.255995,12.1333329 127.209329,11.7346662 127.954662,10.9893329 L129.895995,12.9306662 C128.751995,14.2306661 127.053329,14.9413328 124.973329,14.9413328 C121.281329,14.9413328 119.010662,12.6706662 119.010662,9.221333 C119.010662,5.71999979 121.367996,3.39733321 124.903995,3.39733321 C128.838662,3.39733321 130.849329,6.04933311 130.589329,10.157333 Z M127.001329,8.18133303 C127.001329,6.88133308 126.169329,6.01466645 124.921329,6.01466645 C123.707995,6.01466645 122.910662,6.89866641 122.667996,8.18133303 L127.001329,8.18133303 Z"></path>
                    <path d="M142.878661,7.83466638 L142.878661,14.9586661 L139.186662,14.9586661 L139.186662,8.90933301 C139.186662,7.64399972 138.441328,6.84666642 137.262662,6.84666642 C136.014662,6.86399975 135.199995,7.73066638 135.043995,8.99599967 L135.043995,14.9586661 L131.334662,14.9586661 L131.334662,3.6573332 L135.043995,3.6573332 L135.043995,5.49466647 C135.841328,4.19466651 137.123995,3.51866654 138.787995,3.51866654 C141.249328,3.5013332 142.878661,5.18266648 142.878661,7.83466638 Z"></path>
                    <path d="M155.965328,0.0519999981 L155.965328,14.9413328 L152.255994,14.9413328 L152.255994,13.4853328 C151.475994,14.5253328 150.331994,15.0973328 148.910661,15.0973328 C145.738661,15.0973328 143.641328,12.7573329 143.641328,9.25599966 C143.641328,5.80666645 145.703995,3.53599987 148.823995,3.53599987 C150.279994,3.53599987 151.458661,4.12533318 152.255994,5.14799981 L152.255994,0.0693333308 L155.965328,0.0693333308 L155.965328,0.0519999981 Z M152.255994,9.35999966 C152.255994,7.66133305 151.267994,6.53466643 149.829328,6.53466643 C148.373328,6.53466643 147.385328,7.67866639 147.385328,9.35999966 C147.385328,11.0239996 148.373328,12.1853329 149.829328,12.1853329 C151.267994,12.1679996 152.255994,11.0239996 152.255994,9.35999966 Z"></path>
                    <polygon points="68.9519975 3.81333319 72.8173307 3.81333319 74.1693306 9.013333 75.4519972 3.81333319 78.9879971 3.81333319 80.2879971 9.04799967 81.6746637 3.81333319 85.4706635 3.81333319 82.1426637 14.6986661 78.7279971 14.6986661 77.2199972 8.83999968 75.6773306 14.6986661 72.2799973 14.6986661"></polygon>
                </g>
            </g>
            <g id="Group" transform="translate(215.279992, 0.693333)">
                <g transform="translate(6.760000, 0.000000)" id="Shape">
                    <g transform="translate(0.000000, 12.480000)" fill="#6D91A3">
                        <polygon points="20.5919992 15.3226661 23.7639991 5.18266648 17.1599994 0.121333329 0.103999996 16.830666 18.442666 16.830666 20.5919992 15.3746661"></polygon>
                        <polygon points="41.7386651 0.121333329 35.1519987 5.18266648 38.3239986 15.3573328 40.4733318 16.830666 58.7946645 16.830666"></polygon>
                    </g>
                    <g transform="translate(18.373333, 0.000000)" fill="#16B14B">
                        <polygon points="20.2973326 6.84666642 13.3293328 6.82933308 11.0759996 0.155999994 8.82266634 6.82933308 1.87199993 6.84666642 7.41866639 11.1106663 5.39066647 17.6799994 11.0759996 13.7799995 16.7786661 17.6799994 14.7333328 11.1106663"></polygon>
                        <polygon points="11.1106663 21.8053325 11.0759996 21.7879992 0.0693333308 29.3106656 22.0999992 29.3106656"></polygon>
                    </g>
                </g>
                <g transform="translate(0.000000, 31.546666)" id="Shape" fill="#6D91A3">
                    <path d="M0.0519999981,6.03199978 L0.0519999981,4.97466648 L1.8546666,4.97466648 L1.8546666,2.66933324 L3.18933322,2.09733326 L3.18933322,4.97466648 L5.4599998,4.97466648 L5.4599998,6.03199978 L3.18933322,6.03199978 L3.18933322,13.2253328 C3.18933322,14.7159995 3.34533321,15.0626661 4.40266651,15.0626661 C4.85333316,15.0626661 5.16533314,15.0453328 5.44266647,14.9933328 L5.44266647,16.1546661 C5.04399981,16.2066661 4.59333316,16.2239994 4.17733318,16.2239994 C2.37466658,16.2239994 1.8546666,15.4266661 1.8546666,14.0573328 L1.8546666,6.04933311 L0.0519999981,6.04933311 L0.0519999981,6.03199978 Z"></path>
                    <path d="M8.25066636,10.8333329 L8.25066636,11.6999996 C8.25066636,13.2599995 8.66666635,15.3226661 10.7813329,15.3226661 C12.4453329,15.3226661 13.2599995,14.2653328 13.2426662,12.7573329 L14.6466661,12.7573329 C14.4906661,15.4613328 13.0346662,16.3973327 10.7813329,16.3973327 C8.85733301,16.3973327 6.91599975,15.6173328 6.91599975,12.2199996 L6.91599975,9.46399965 C6.91599975,6.22266644 8.2679997,4.73199983 10.7813329,4.73199983 C14.6466661,4.73199983 14.6466661,7.50533306 14.6466661,10.8333329 L8.25066636,10.8333329 L8.25066636,10.8333329 Z M13.3119995,9.77599964 C13.3119995,7.29733307 12.9133329,5.80666645 10.7813329,5.80666645 C8.64933302,5.80666645 8.25066636,7.29733307 8.25066636,9.77599964 L13.3119995,9.77599964 Z"></path>
                    <path d="M22.0479992,8.18133303 C22.1173325,6.77733308 21.5973325,5.80666645 20.0719993,5.80666645 C19.2573326,5.80666645 18.5639993,6.27466644 18.2693327,7.08933307 C18.0959993,7.59199972 17.9573327,9.13466633 17.9573327,10.6079996 C17.9573327,12.6186662 17.9573327,15.3053328 20.0199993,15.3053328 C21.7706659,15.3053328 21.9959992,14.1959995 22.0653325,12.8439995 L23.3999991,12.8439995 C23.5039991,15.8599994 21.3893325,16.3626661 20.3319993,16.3626661 C16.5359994,16.3626661 16.5359994,13.3639995 16.5359994,10.5906663 C16.5359994,9.48133299 16.5879994,7.73066638 16.8653327,6.88133308 C17.4373327,5.28666647 18.702666,4.71466649 20.2279993,4.71466649 C22.1519992,4.71466649 23.4693325,5.80666645 23.3479991,8.14666637 L22.0479992,8.14666637 L22.0479992,8.18133303 Z"></path>
                    <path d="M25.6879991,16.1546661 L25.6879991,0.138666662 L27.0226657,0.138666662 L27.0226657,6.32666643 L27.0746657,6.32666643 C27.715999,5.39066647 28.5826656,4.73199983 29.7786656,4.73199983 C32.5519988,4.73199983 32.8466655,6.79466642 32.8466655,8.25066636 L32.8466655,16.1546661 L31.5119988,16.1546661 L31.5119988,8.31999969 C31.5119988,7.01999974 31.0093322,5.78933312 29.4493323,5.78933312 C28.2533323,5.78933312 27.039999,6.60399976 27.039999,9.117333 L27.039999,16.1546661 L25.6879991,16.1546661 L25.6879991,16.1546661 Z"></path>
                    <path d="M38.4973319,16.3799994 C36.0879987,16.3799994 35.1346654,15.2013328 35.1519987,12.8266662 L36.5039987,12.8266662 C36.5039987,14.3519995 36.8506653,15.3746661 38.5666653,15.3746661 C39.8493319,15.3746661 40.4733318,14.6466661 40.4733318,13.3986662 C40.4733318,10.4693329 35.4466654,11.2319996 35.4466654,7.52266639 C35.4466654,5.4599998 36.8679986,4.73199983 38.8093319,4.73199983 C41.0279985,4.73199983 41.7386651,6.2573331 41.7386651,7.97333304 L40.4386652,7.97333304 C40.3693319,6.55199976 39.9879985,5.80666645 38.4799986,5.80666645 C37.5266653,5.80666645 36.7639987,6.43066643 36.7639987,7.41866639 C36.7639987,10.209333 41.7906651,9.46399965 41.7906651,13.2079995 C41.8079985,15.3226661 40.5946652,16.3799994 38.4973319,16.3799994 Z"></path>
                    <path d="M43.1599984,6.03199978 L43.1599984,4.97466648 L44.962665,4.97466648 L44.962665,2.66933324 L46.2973316,2.09733326 L46.2973316,4.97466648 L48.5679982,4.97466648 L48.5679982,6.03199978 L46.2799983,6.03199978 L46.2799983,13.2253328 C46.2799983,14.7159995 46.4359983,15.0626661 47.4933316,15.0626661 C47.9439982,15.0626661 48.2559982,15.0453328 48.5333316,14.9933328 L48.5333316,16.1546661 C48.1346649,16.2066661 47.6839983,16.2239994 47.2679983,16.2239994 C45.4653317,16.2239994 44.9453317,15.4266661 44.9453317,14.0573328 L44.9453317,6.04933311 L43.1599984,6.04933311 L43.1599984,6.03199978 Z"></path>
                    <path d="M56.1079979,14.7853328 L56.0559979,14.7853328 C55.3453313,15.8426661 54.2533313,16.3799994 52.8839981,16.3799994 C50.8906648,16.3799994 49.7986648,15.0279994 49.7986648,13.0693329 C49.7986648,9.15199966 53.7506647,9.55066632 56.0039979,9.35999966 L56.0039979,8.42399969 C56.0039979,6.77733308 55.5186646,5.78933312 53.7333314,5.78933312 C52.5199981,5.78933312 51.5319981,6.39599977 51.5319981,7.71333305 L50.1106648,7.71333305 C50.2146648,5.5639998 51.8786648,4.71466649 53.8373314,4.71466649 C54.963998,4.71466649 57.3213312,4.81866649 57.3213312,7.67866639 L57.3213312,13.3466662 C57.3213312,14.1439995 57.3213312,14.8546661 57.4599979,16.1546661 L56.0906646,16.1546661 L56.0906646,14.7853328 L56.1079979,14.7853328 Z M56.0213313,10.4346663 C54.1146647,10.5039996 51.2373315,10.2786663 51.2373315,12.9999995 C51.2373315,14.2653328 51.8786648,15.3053328 53.247998,15.3053328 C54.7733313,15.3053328 56.0213313,13.9359995 56.0213313,12.4626662 L56.0213313,10.4346663 Z"></path>
                    <path d="M61.3773311,6.4653331 L61.4293311,6.4653331 C61.9839977,5.4079998 63.1626643,4.73199983 64.5146643,4.73199983 L64.5146643,6.08399978 C62.625331,5.92799978 61.3946644,7.05466641 61.3946644,8.94399967 L61.3946644,16.1546661 L60.0599978,16.1546661 L60.0599978,4.95733315 L61.3946644,4.95733315 L61.3946644,6.4653331 L61.3773311,6.4653331 Z"></path>
                    <path d="M68.9693308,16.3799994 C66.5599976,16.3799994 65.6066643,15.2013328 65.6239976,12.8266662 L66.9759975,12.8266662 C66.9759975,14.3519995 67.3226642,15.3746661 69.0386641,15.3746661 C70.3213308,15.3746661 70.9453307,14.6466661 70.9453307,13.3986662 C70.9453307,10.4693329 65.9186642,11.2319996 65.9186642,7.52266639 C65.9186642,5.4599998 67.3399975,4.73199983 69.2813308,4.73199983 C71.4999974,4.73199983 72.210664,6.2573331 72.210664,7.97333304 L70.9106641,7.97333304 C70.8413307,6.55199976 70.4599974,5.80666645 68.9519975,5.80666645 C67.9986642,5.80666645 67.2359975,6.43066643 67.2359975,7.41866639 C67.2359975,10.209333 72.262664,9.46399965 72.262664,13.2079995 C72.2799973,15.3226661 71.0666641,16.3799994 68.9693308,16.3799994 Z"></path>
                </g>
                <path d="M72.3839973,36.313332 C72.3839973,36.0879987 72.4359973,35.897332 72.5399973,35.7066654 C72.6439973,35.5159987 72.782664,35.377332 72.9559973,35.273332 C73.1293307,35.169332 73.3199973,35.117332 73.5279973,35.117332 C73.7359973,35.117332 73.926664,35.169332 74.0999973,35.273332 C74.2733306,35.377332 74.4119973,35.533332 74.5159973,35.7066654 C74.6199973,35.897332 74.6719973,36.0879987 74.6719973,36.313332 C74.6719973,36.521332 74.6199973,36.729332 74.5333306,36.9026653 C74.4293306,37.093332 74.2906639,37.2319986 74.1173306,37.353332 C73.9439973,37.457332 73.7359973,37.5266653 73.5279973,37.5266653 C73.3199973,37.5266653 73.1293307,37.4746653 72.938664,37.353332 C72.7653307,37.249332 72.626664,37.093332 72.522664,36.9026653 C72.418664,36.729332 72.3839973,36.5386653 72.3839973,36.313332 Z M72.5573307,36.313332 C72.5573307,36.5039987 72.5919973,36.677332 72.678664,36.833332 C72.7653307,36.989332 72.886664,37.1106653 73.0253307,37.197332 C73.1813306,37.2839986 73.3373306,37.3359986 73.510664,37.3359986 C73.6839973,37.3359986 73.8399973,37.2839986 73.9959973,37.197332 C74.1519973,37.1106653 74.2559973,36.989332 74.3426639,36.833332 C74.4293306,36.677332 74.4639973,36.5039987 74.4639973,36.3306653 C74.4639973,36.1399987 74.4293306,35.9839987 74.3426639,35.8279987 C74.2559973,35.6719987 74.1346639,35.5506654 73.9959973,35.4639987 C73.8399973,35.377332 73.6839973,35.325332 73.510664,35.325332 C73.3373306,35.325332 73.1813306,35.377332 73.0253307,35.4639987 C72.8693307,35.5506654 72.7653307,35.6719987 72.678664,35.8279987 C72.6093307,35.9666653 72.5573307,36.1399987 72.5573307,36.313332 Z M73.2853306,36.4346653 L73.2853306,36.9719986 L73.0599973,36.9719986 L73.0599973,35.6026654 L73.510664,35.6026654 C73.666664,35.6026654 73.8053306,35.637332 73.8919973,35.7066654 C73.978664,35.7759987 74.030664,35.8799987 74.030664,36.0186653 C74.030664,36.157332 73.9613306,36.2439987 73.822664,36.3306653 C73.9613306,36.3826653 74.0133306,36.4866653 74.0133306,36.6599987 L74.0133306,36.7639987 C74.0133306,36.8506653 74.030664,36.9199986 74.0479973,36.9719986 L74.0479973,36.989332 L73.822664,36.989332 C73.8053306,36.9546653 73.8053306,36.885332 73.8053306,36.781332 C73.8053306,36.677332 73.8053306,36.625332 73.8053306,36.6079987 C73.7879973,36.5039987 73.718664,36.4519987 73.5973306,36.4519987 L73.2853306,36.4519987 L73.2853306,36.4346653 Z M73.2853306,36.2266653 L73.5453306,36.2266653 C73.614664,36.2266653 73.6839973,36.209332 73.7359973,36.1746653 C73.7879973,36.1399987 73.8053306,36.0879987 73.8053306,36.0359987 C73.8053306,35.949332 73.7879973,35.897332 73.7359973,35.8626654 C73.7013306,35.8279987 73.614664,35.8106654 73.510664,35.8106654 L73.2853306,35.8106654 L73.2853306,36.2266653 Z" id="Shape" fill="#6D91A3"></path>
            </g>
            <g id="Group" fill="#12B24B">
                <g>
                    <path d="M22.0826659,13.6066662 C22.0826659,13.2946662 19.5866659,12.9479995 16.5013327,12.9479995 C13.4159995,12.9479995 10.9199996,13.2946662 10.9199996,13.6066662 C10.9199996,13.9186662 13.4159995,14.2653328 16.5013327,14.2653328 C19.5866659,14.2826661 22.0826659,13.9186662 22.0826659,13.6066662 Z" id="Shape"></path>
                    <circle id="Oval" cx="14.0746662" cy="3.25866655" r="3.18933322"></circle>
                    <circle id="Oval" cx="19.0493326" cy="7.69599972" r="2.28799992"></circle>
                    <path d="M32.8293321,44.4599984 L22.8799992,20.0373326 L25.7226657,12.5319995 C25.7919991,12.3413329 25.7919991,12.1333329 25.7053324,11.9599996 C25.6186657,11.7866662 25.4626657,11.6479996 25.2719991,11.5786662 C25.1159991,11.5266662 21.5106659,10.417333 16.5013327,10.417333 C16.2586661,10.417333 16.0159994,10.417333 15.7733328,10.417333 C15.8599994,10.209333 15.9119994,9.98399963 15.9119994,9.74133298 C15.9119994,8.73599968 15.0973328,7.93866638 14.1093328,7.93866638 C13.1039995,7.93866638 12.3066662,8.75333301 12.3066662,9.74133298 C12.3066662,10.0706663 12.3933329,10.3826663 12.5493329,10.6426663 C9.70666631,10.9719996 7.85199971,11.5439996 7.74799972,11.5786662 C7.55733306,11.6306662 7.40133306,11.7693329 7.3146664,11.9599996 C7.22799973,12.1333329 7.2106664,12.3586662 7.29733307,12.5319995 L10.209333,20.0893326 L0.207999992,44.4599984 C0.138666662,44.650665 0.155999994,44.806665 0.155999994,44.806665 C0.155999994,45.638665 1.17866662,45.794665 2.01066659,45.9159983 C2.82533323,46.0373316 3.96933319,46.1413316 5.42533313,46.2453316 C8.38933303,46.4359983 12.3413329,46.5399983 16.5359994,46.5399983 C20.7306659,46.5399983 24.6653324,46.4359983 27.6466657,46.2453316 C29.1026656,46.158665 30.2466656,46.0373316 31.0613322,45.9159983 C31.8933322,45.794665 32.9159988,45.638665 32.9159988,44.806665 C32.8813321,44.806665 32.8813321,44.6159984 32.8293321,44.4599984 Z M16.5186661,45.066665 C8.44133302,45.066665 3.37999988,44.702665 1.8026666,44.4079984 L11.6479996,20.3666659 C11.7173329,20.1933326 11.7173329,20.0026659 11.6479996,19.8293326 L8.92666634,12.7573329 C10.209333,12.4453329 13.0173329,11.8559996 16.5013327,11.8559996 C19.9853326,11.8559996 22.7933325,12.4279995 24.0759991,12.7573329 L21.4066659,19.7946659 C21.3373326,19.9679993 21.3373326,20.1586659 21.4066659,20.3319993 L31.1999989,44.4079984 C29.6573322,44.7199984 24.5959991,45.066665 16.5186661,45.066665 Z" id="Shape"></path>
                    <path d="M29.0506656,43.1946651 L26.363999,36.573332 L26.363999,35.2559987 C26.363999,34.1639987 25.9653324,33.1239988 25.2026657,32.3613321 C24.9946657,32.1533322 24.7866658,31.9626655 24.5439991,31.8066655 C24.5439991,31.8066655 19.9159993,20.2106659 19.9159993,20.2106659 C19.8986659,20.1759993 19.8813326,20.1239993 19.8466659,20.1239993 C18.910666,20.2106659 17.766666,20.2626659 16.5186661,20.2626659 C15.2706661,20.2626659 14.1093328,20.2106659 13.1733329,20.1066659 C13.1386662,20.1066659 13.1039995,20.1586659 13.0866662,20.1933326 C13.0866662,20.1933326 9.63733298,28.8079989 9.63733298,28.8079989 C8.57999969,29.5533322 7.95599971,30.7839989 7.95599971,32.1706655 L7.95599971,33.2626654 L3.96933319,43.1773317 C4.64533316,43.4199984 8.70133301,43.6106651 9.30799966,43.5586651 L9.30799966,32.1706655 C9.30799966,30.6799989 10.4866663,29.4493323 11.9773329,29.4493323 C13.4679995,29.4493323 14.6293328,30.6626655 14.6293328,32.1533322 L14.6293328,36.365332 C13.2773328,36.9719986 12.2893329,38.4106653 12.2893329,40.0919985 L12.2893329,43.7146651 L13.6413328,43.7146651 L13.6413328,40.0919985 C13.6413328,38.6706652 14.8026661,37.509332 16.2413327,37.509332 C17.662666,37.509332 18.8239993,38.6706652 18.8239993,40.0919985 L18.8239993,43.6973317 L20.3146659,43.6973317 L20.3146659,40.0919985 C20.3146659,39.2773319 20.0719993,38.5319986 19.6559993,37.8906653 C19.6559993,37.0066653 19.6559993,35.1346654 19.6559993,35.1519987 C19.7599993,33.7479988 20.9386659,32.6386655 22.3599992,32.6386655 C23.7813325,32.6386655 24.9599991,33.7306654 25.0639991,35.1346654 C25.0639991,35.117332 25.0639991,43.3679984 25.0639991,43.5586651 C25.3586657,43.5413317 28.4786656,43.4199984 29.0506656,43.1946651 Z M19.9333326,31.9279988 C19.4999993,32.2053322 19.1533326,32.6039988 18.858666,33.0373321 C18.5813327,33.4533321 18.390666,33.9213321 18.286666,34.4066654 C18.234666,34.6839987 18.1999993,34.9786654 18.1999993,35.2559987 L18.1999993,36.573332 C17.5759994,36.261332 16.934666,36.0879987 16.2413327,36.0879987 C16.1719994,36.0879987 15.9813327,36.0879987 15.9813327,36.0879987 L15.9813327,32.1706655 C15.9813327,31.0959989 15.6173328,29.9866656 14.7506661,29.2586656 L14.7506661,27.247999 C14.7506661,25.7573324 16.1546661,24.4399991 17.662666,24.4399991 C19.1533326,24.4399991 20.5746659,25.7399991 20.5746659,27.247999 L20.5746659,31.5639988 L20.5746659,31.5986655 L20.5746659,31.6159988 C20.3319993,31.6853322 20.1239993,31.8066655 19.9333326,31.9279988 Z" id="Shape"></path>
                    <circle id="Oval" transform="translate(10.798769, 32.846977) rotate(-0.212952) translate(-10.798769, -32.846977) " cx="10.7987687" cy="32.8469766" r="1"></circle>
                    <circle id="Oval" transform="translate(13.104149, 32.847012) rotate(-0.232270) translate(-13.104149, -32.847012) " cx="13.1041488" cy="32.8470123" r="1"></circle>
                    <circle id="Oval" transform="translate(16.553487, 27.456276) rotate(-0.217561) translate(-16.553487, -27.456276) " cx="16.5534873" cy="27.4562758" r="1"></circle>
                    <circle id="Oval" transform="translate(18.858853, 27.456260) rotate(-0.217558) translate(-18.858853, -27.456260) " cx="18.8588529" cy="27.4562596" r="1"></circle>
                    <circle id="Oval" transform="translate(21.216234, 35.949686) rotate(-0.222185) translate(-21.216234, -35.949686) " cx="21.216234" cy="35.9496863" r="1"></circle>
                    <circle id="Oval" transform="translate(23.521613, 35.949702) rotate(-0.232311) translate(-23.521613, -35.949702) " cx="23.5216134" cy="35.9497016" r="1"></circle>
                    <circle id="Oval" transform="translate(15.184144, 39.953727) rotate(-0.226037) translate(-15.184144, -39.953727) " cx="15.1841443" cy="39.9537267" r="1"></circle>
                    <circle id="Oval" transform="translate(17.350852, 39.953790) rotate(-0.240694) translate(-17.350852, -39.953790) " cx="17.350852" cy="39.9537904" r="1"></circle>
                </g>
                <path d="M17.714666,30.2466656 C17.2639994,30.2466656 16.830666,30.1253322 16.4319994,29.8826656 C16.2413327,29.7613322 16.1893327,29.5186656 16.3106661,29.3279989 C16.4319994,29.1373323 16.6746661,29.0853323 16.8653327,29.2066656 C17.3853327,29.5359989 18.0613327,29.5359989 18.5813327,29.2066656 C18.7719993,29.0853323 19.014666,29.1546656 19.1359993,29.3279989 C19.2573326,29.5186656 19.1879993,29.7613322 19.014666,29.8826656 C18.6159993,30.1253322 18.1653327,30.2466656 17.714666,30.2466656 Z" id="Shape"></path>
                <path d="M11.9773329,35.7066654 C11.5266662,35.7066654 11.0933329,35.585332 10.6946663,35.3426654 C10.5039996,35.221332 10.4519996,34.9786654 10.5733329,34.7879987 C10.6946663,34.5973321 10.9373329,34.5453321 11.1279996,34.6666654 C11.6479996,34.9959987 12.3239995,34.9959987 12.8439995,34.6666654 C13.0346662,34.5453321 13.2773328,34.6146654 13.3986662,34.7879987 C13.5199995,34.9786654 13.4506662,35.221332 13.2773328,35.3426654 C12.8613329,35.585332 12.4279995,35.7066654 11.9773329,35.7066654 Z" id="Shape"></path>
                <path d="M16.2759994,42.6573318 C15.8253328,42.6573318 15.3919994,42.5359984 14.9933328,42.2933318 C14.8026661,42.1719985 14.7506661,41.9293318 14.8719995,41.7386651 C14.9933328,41.5479985 15.2359994,41.4959985 15.4266661,41.6173318 C15.9466661,41.9466651 16.6226661,41.9466651 17.142666,41.6173318 C17.3333327,41.4959985 17.5759994,41.5653318 17.6973327,41.7386651 C17.818666,41.9293318 17.7493327,42.1719985 17.5759994,42.2933318 C17.1599994,42.5359984 16.7266661,42.6573318 16.2759994,42.6573318 Z" id="Shape"></path>
                <path d="M22.3773325,38.8093319 C21.9266659,38.8093319 21.4933325,38.6879986 21.0946659,38.4453319 C20.9039992,38.3239986 20.8519992,38.0813319 20.9733326,37.8906653 C21.0946659,37.6999986 21.3373326,37.6479986 21.5279992,37.7693319 C22.0479992,38.0986653 22.7239992,38.0986653 23.2439991,37.7693319 C23.4346658,37.6479986 23.6773325,37.7173319 23.7986658,37.8906653 C23.9199991,38.0813319 23.8506658,38.3239986 23.6773325,38.4453319 C23.2613325,38.6879986 22.8279992,38.8093319 22.3773325,38.8093319 Z" id="Shape"></path>
            </g>
        </g>
    </g>
</svg>